<svg xmlns="http://www.w3.org/2000/svg" width="800" height="800" viewBox="0 0 64 64"><path d="M35.7 48c-2.8 0-6.4 4.9-6.4 8h-5.2c-1.7 0-3.2 1.6-3.2 3.5 0 2 1.4 3.4 3.2 3.4h22.5c13 .1 16.5-11.6 15.4-19.8 0 0-11.1 11.8-14.1 11.8.1-12.2-8.9-23.7-14.8-29-3.3-3-4.2-10.9-4.2-10.9v-4.2c0-4.3-.3-8.9-1.2-9.5C26.1.2 23.3 5.9 21 5.9c-11.7 0-10 8-12.5 8H3.2c-2.2 0-2.2 1.8-2.2 3 .2 3.3 1.9 6 10 6 2 0 5.1 2.8 5.1 7.9v26.1H15c-1.1 0-2 .9-2 2v2c0 1.1.9 2 2 2h15.75M21.9 44v8.8M2 20h6" fill="none" stroke="#b65b58"/></svg>